<?xml version="1.0" standalone="no"?>
<!DOCTYPE svg PUBLIC "-//W3C//DTD SVG 20010904//EN"
 "http://www.w3.org/TR/2001/REC-SVG-20010904/DTD/svg10.dtd">
<svg version="1.0" xmlns="http://www.w3.org/2000/svg"
 width="1920.000000pt" height="1920.000000pt" viewBox="0 0 1920.000000 1920.000000"
 preserveAspectRatio="xMidYMid meet">
<metadata>
Created by potrace 1.11, written by Peter Selinger 2001-2013
</metadata>
<g transform="translate(0.000000,1920.000000) scale(0.100000,-0.100000)"
fill="#000000" stroke="none">
<path d="M11391 14400 c-58 -42 -377 -271 -709 -509 l-602 -432 -620 445
c-415 298 -629 446 -645 446 -17 0 -462 -315 -1377 -972 -744 -534 -1359 -977
-1365 -984 -10 -10 -13 -238 -13 -1031 l-1 -1018 1315 -945 1316 -945 -1313
-5 c-1204 -5 -1315 -6 -1330 -22 -15 -15 -17 -102 -17 -1038 l-1 -1022 53 -37
c29 -20 646 -463 1371 -984 1186 -852 1321 -947 1355 -947 33 0 106 50 701
483 571 417 707 511 686 477 -2 -4 14 -17 35 -31 22 -13 40 -27 40 -31 0 -5 7
-8 15 -8 8 0 15 -3 15 -7 1 -5 30 -28 66 -53 36 -25 135 -96 222 -158 86 -62
190 -136 230 -165 40 -29 79 -57 85 -63 13 -11 129 -92 156 -109 9 -5 18 -12
21 -16 3 -3 28 -21 55 -40 28 -18 52 -37 55 -40 3 -3 34 -26 68 -50 87 -60
109 -76 189 -134 68 -50 68 -50 148 -51 89 -1 80 -6 265 131 41 30 100 73 130
95 30 21 159 114 285 207 127 92 363 265 525 382 162 118 347 253 410 299 63
47 135 100 160 118 25 18 135 99 245 179 110 80 294 214 409 298 225 164 284
206 333 240 34 23 71 77 53 77 -7 0 -10 296 -10 1000 1 875 2 998 15 994 9 -4
15 0 15 10 0 9 -4 16 -10 16 -5 0 -10 9 -10 19 0 10 -8 22 -17 25 -14 6 -15 9
-4 15 7 5 11 17 7 27 -3 11 -6 24 -7 29 -1 6 -15 19 -30 30 -15 11 -56 40 -90
65 -35 25 -67 44 -71 43 -4 -2 -8 1 -8 7 0 5 -17 21 -37 35 -39 25 -170 118
-188 132 -5 5 -32 24 -60 43 -27 19 -55 40 -61 45 -6 6 -37 28 -68 50 -31 22
-77 55 -102 73 -24 18 -49 30 -54 27 -6 -4 -9 -2 -8 4 2 8 -132 111 -262 201
-12 8 -52 37 -88 63 -93 68 -420 302 -500 359 -37 26 -77 55 -89 64 -34 25
-193 139 -231 166 -18 13 -55 40 -82 61 -27 20 -54 37 -59 37 -5 0 -11 3 -13
8 -5 12 -146 112 -158 112 -5 0 -10 3 -10 8 0 4 -45 38 -99 77 -55 38 -98 71
-97 72 1 2 549 3 1217 3 1201 1 1215 1 1232 21 16 18 17 88 13 1022 -2 551 -7
1023 -11 1050 -4 26 -11 47 -16 47 -5 0 -9 8 -9 18 -1 9 -24 34 -53 54 -29 20
-108 77 -177 127 -69 49 -140 100 -158 113 -18 13 -39 28 -45 33 -7 6 -35 26
-62 45 -28 19 -54 38 -60 43 -9 7 -72 52 -264 189 -41 29 -93 67 -115 83 -175
129 -385 275 -395 275 -7 0 -10 4 -7 9 3 5 0 11 -7 14 -6 2 -110 75 -229 161
-120 85 -218 154 -218 152 0 -3 -15 9 -32 24 -18 16 -94 72 -168 124 -74 52
-139 99 -145 103 -5 5 -32 24 -60 43 -27 19 -52 38 -55 41 -3 3 -27 20 -55 39
-27 19 -78 54 -111 79 -34 25 -72 53 -84 61 -13 8 -35 25 -50 38 -15 12 -31
22 -34 22 -3 0 -14 7 -23 15 -83 68 -107 79 -177 80 l-69 1 -106 -76z m392
-293 c48 -34 142 -101 207 -149 66 -49 124 -88 130 -88 5 0 10 -3 10 -7 0 -5
17 -19 37 -33 39 -26 301 -213 318 -228 6 -4 33 -23 60 -42 28 -19 55 -38 60
-42 20 -17 149 -111 180 -131 18 -12 101 -71 184 -132 84 -60 160 -114 169
-120 9 -5 21 -14 28 -20 6 -5 37 -28 68 -50 31 -22 81 -58 111 -80 29 -22 104
-76 167 -120 62 -44 115 -82 118 -85 15 -17 140 -100 140 -93 0 4 5 1 10 -8 5
-9 35 -34 67 -55 32 -21 64 -45 71 -52 8 -7 18 -9 24 -6 6 4 8 3 5 -2 -3 -5
11 -21 31 -34 20 -14 39 -28 42 -31 3 -4 19 -15 35 -25 17 -11 52 -35 77 -54
l47 -35 1 -922 0 -923 -1315 0 -1315 0 0 930 0 930 -99 73 c-54 39 -337 243
-629 452 -292 209 -531 383 -532 387 0 3 96 75 213 159 419 301 801 576 940
675 l142 102 55 -39 c30 -22 95 -68 143 -102z m-43 -3891 c96 -69 186 -134
199 -143 13 -10 42 -31 66 -48 57 -40 477 -343 523 -377 21 -15 44 -31 52 -35
8 -3 17 -10 20 -13 3 -4 109 -81 235 -171 127 -90 232 -166 235 -169 3 -3 34
-26 70 -51 36 -24 83 -57 105 -74 23 -16 54 -39 69 -50 16 -11 40 -29 55 -40
42 -33 85 -60 94 -57 4 1 7 -2 7 -7 0 -7 235 -180 525 -386 23 -16 57 -40 74
-53 17 -13 31 -21 31 -18 0 3 10 -5 23 -17 12 -12 33 -29 46 -38 l24 -15 0
-964 c0 -935 -1 -964 -19 -977 -25 -16 -1046 -759 -1059 -770 -5 -5 -64 -48
-130 -96 -66 -47 -194 -141 -285 -207 -254 -185 -355 -259 -461 -335 -53 -38
-217 -158 -363 -265 -147 -107 -275 -200 -284 -206 -14 -10 -49 11 -217 132
-110 79 -207 150 -215 157 -9 6 -36 26 -60 42 -25 17 -49 33 -55 38 -5 4 -28
21 -50 37 -22 16 -45 34 -52 40 -7 5 -16 10 -22 10 -5 0 -11 3 -13 8 -7 17
-61 51 -72 45 -6 -3 -8 -3 -4 2 6 6 -79 72 -206 160 -16 11 -41 29 -56 40 -16
11 -69 49 -119 85 -50 36 -91 67 -91 70 0 3 266 199 591 435 325 237 600 437
610 446 21 18 25 44 9 54 -7 4 -10 342 -10 981 0 864 2 975 15 980 11 5 15 19
14 53 -1 25 1 72 4 104 3 31 2 57 -1 57 -4 0 -23 14 -42 30 -19 16 -40 30 -47
30 -6 0 -13 4 -15 8 -1 4 -50 42 -108 82 -58 41 -109 78 -115 83 -5 4 -75 54
-155 112 -80 57 -173 124 -207 149 -34 25 -67 46 -72 46 -5 0 -11 3 -13 8 -4
9 -62 53 -148 111 -36 25 -67 47 -70 51 -3 3 -27 21 -55 40 -27 19 -52 37 -55
40 -3 3 -27 21 -55 40 -39 27 -320 228 -360 258 -5 4 -50 36 -100 72 -49 35
-91 68 -93 72 -2 4 -8 8 -12 8 -5 0 -38 21 -73 48 -36 26 -75 54 -87 62 -12 8
-50 35 -84 60 -33 25 -96 70 -140 100 -43 30 -87 63 -97 73 -11 9 -22 17 -25
17 -4 0 -38 24 -78 53 -39 29 -82 61 -96 70 -23 16 48 17 1160 19 652 2 1192
0 1200 -4 8 -4 94 -63 190 -132z"/>
</g>
</svg>
